HIERARCHY
ROOT Hips
{
	OFFSET 0.000000 0.000000 0.000000
	CHANNELS 6 Xposition Yposition Zposition Zrotation Yrotation Xrotation 
	JOINT LHipJoint
	{
		OFFSET 0.000000 0.000000 0.000000
		CHANNELS 3 Zrotation Yrotation Xrotation
		JOINT LeftUpLeg
		{
			OFFSET 1.363060 -1.794630 0.839290
			CHANNELS 3 Zrotation Yrotation Xrotation
			JOINT LeftLeg
			{
				OFFSET 2.448110 -6.726130 0.000000
				CHANNELS 3 Zrotation Yrotation Xrotation
				JOINT LeftFoot
				{
					OFFSET 2.562200 -7.039590 0.000000
					CHANNELS 3 Zrotation Yrotation Xrotation
					JOINT LeftToeBase
					{
						OFFSET 0.157640 -0.433110 2.322550
						CHANNELS 3 Zrotation Yrotation Xrotation
						End Site
						{
							OFFSET 0.000000 0.000000 0.000000
						}
					}
				}
			}
		}
	}
	JOINT RHipJoint
	{
		OFFSET 0.000000 0.000000 0.000000
		CHANNELS 3 Zrotation Yrotation Xrotation
		JOINT RightUpLeg
		{
			OFFSET -1.305520 -1.794630 0.839290
			CHANNELS 3 Zrotation Yrotation Xrotation
			JOINT RightLeg
			{
				OFFSET -2.542530 -6.985550 0.000000
				CHANNELS 3 Zrotation Yrotation Xrotation
				JOINT RightFoot
				{
					OFFSET -2.568260 -7.056230 0.000000
					CHANNELS 3 Zrotation Yrotation Xrotation
					JOINT RightToeBase
					{
						OFFSET -0.164730 -0.452590 2.363150
						CHANNELS 3 Zrotation Yrotation Xrotation
						End Site
						{
							OFFSET 0.000000 0.000000 0.000000
						}
					}
				}
			}
		}
	}
	JOINT LowerBack
	{
		OFFSET 0.000000 0.000000 0.000000
		CHANNELS 3 Zrotation Yrotation Xrotation
		JOINT Spine
		{
			OFFSET 0.028270 2.035590 -0.193380
			CHANNELS 3 Zrotation Yrotation Xrotation
			JOINT Spine1
			{
				OFFSET 0.056720 2.048850 -0.042750
				CHANNELS 3 Zrotation Yrotation Xrotation
				JOINT Neck
				{
					OFFSET 0.000000 0.000000 0.000000
					CHANNELS 3 Zrotation Yrotation Xrotation
					JOINT Neck1
					{
						OFFSET -0.054170 1.746240 0.172020
						CHANNELS 3 Zrotation Yrotation Xrotation
						JOINT Head
						{
							OFFSET 0.104070 1.761360 -0.123970
							CHANNELS 3 Zrotation Yrotation Xrotation
							End Site
							{
								OFFSET 0.000000 0.000000 0.000000
							}
						}
					}
				}
				JOINT LeftShoulder
				{
					OFFSET 0.000000 0.000000 0.000000
					CHANNELS 3 Zrotation Yrotation Xrotation
					JOINT LeftArm
					{
						OFFSET 3.362410 1.200890 -0.311210
						CHANNELS 3 Zrotation Yrotation Xrotation
						JOINT LeftForeArm
						{
							OFFSET 4.983000 -0.000000 -0.000000
							CHANNELS 3 Zrotation Yrotation Xrotation
							JOINT LeftHand
							{
								OFFSET 3.483560 -0.000000 -0.000000
								CHANNELS 3 Zrotation Yrotation Xrotation
								JOINT LeftFingerBase
								{
									OFFSET 0.000000 0.000000 0.000000
									CHANNELS 3 Zrotation Yrotation Xrotation
									JOINT LeftHandIndex1
									{
										OFFSET 0.715260 -0.000000 -0.000000
										CHANNELS 3 Zrotation Yrotation Xrotation
										End Site
										{
											OFFSET 0.000000 0.000000 0.000000
										}
									}
								}
								JOINT LThumb
								{
									OFFSET 0.000000 0.000000 0.000000
									CHANNELS 3 Zrotation Yrotation Xrotation
									End Site
									{
										OFFSET 0.000000 0.000000 0.000000
									}
								}
							}
						}
					}
				}
				JOINT RightShoulder
				{
					OFFSET 0.000000 0.000000 0.000000
					CHANNELS 3 Zrotation Yrotation Xrotation
					JOINT RightArm
					{
						OFFSET -3.136600 1.374050 -0.404650
						CHANNELS 3 Zrotation Yrotation Xrotation
						JOINT RightForeArm
						{
							OFFSET -5.241900 -0.000000 -0.000000
							CHANNELS 3 Zrotation Yrotation Xrotation
							JOINT RightHand
							{
								OFFSET -3.444170 -0.000000 -0.000000
								CHANNELS 3 Zrotation Yrotation Xrotation
								JOINT RightFingerBase
								{
									OFFSET 0.000000 0.000000 0.000000
									CHANNELS 3 Zrotation Yrotation Xrotation
									JOINT RightHandIndex1
									{
										OFFSET -0.622530 -0.000000 -0.000000
										CHANNELS 3 Zrotation Yrotation Xrotation
										End Site
										{
											OFFSET 0.000000 0.000000 0.000000
										}
									}
								}
								JOINT RThumb
								{
									OFFSET 0.000000 0.000000 0.000000
									CHANNELS 3 Zrotation Yrotation Xrotation
									End Site
									{
										OFFSET 0.000000 0.000000 0.000000
									}
								}
							}
						}
					}
				}
			}
		}
	}
}
MOTION
Frames: 4
Frame Time: 0.008333
31.045646 16.593544 9.724489 -177.800621 -26.491251 -177.625416 4.818230 -5.891623 -9.910818 -18.809427 -23.437112 -3.623837 -15.336882 -4.172061 32.008636 2.864570 -6.916808 0.977291 7.719396 -6.696756 -3.616980 5.736465 18.905598 -14.813132 8.445991 -3.918505 7.440767 -3.183264 -6.915626 13.933607 7.302737 11.904586 -13.082078 -2.315079 4.161524 -2.181013 -11.004363 -2.619889 28.925351 5.012503 -0.147068 -10.187175 3.633216 -0.447341 -4.771153 -0.135354 1.971545 -8.198517 7.118129 1.184883 15.303503 -14.072750 12.989164 9.420651 14.539588 -6.751394 0.753262 -82.493635 -37.468647 27.018856 1.644560 -48.809235 5.027948 -16.138370 6.808737 -1.712370 -0.000000 -0.000000 0.000000 -0.000000 -0.000000 0.000000 -0.000000 -0.000000 -0.000000 -6.466333 2.789154 1.573018 78.603156 7.986941 8.981114 10.132860 30.537629 -14.461079 3.033897 -11.463261 -1.884515 0.000000 -0.000001 0.000001 0.000000 0.000000 0.000000 -0.000000 0.000000 -0.000000 
31.129730 16.600751 9.685030 -177.871203 -27.680353 -177.388411 4.572563 -6.140469 -10.154412 -18.146983 -23.293508 -4.091117 -15.213395 -3.154946 31.913829 2.221751 -7.675120 1.292848 7.318635 -6.947468 -3.044273 5.850714 18.895620 -14.945883 8.173951 -4.147684 7.170023 -2.612147 -6.554367 14.612949 5.865143 10.361546 -13.556534 -1.524165 2.339242 -1.787800 -10.766994 -2.556130 29.284873 4.899141 -0.016803 -10.268289 3.505260 -0.290784 -4.926486 -0.135102 1.965622 -8.245498 7.134443 1.186481 15.064950 -14.452509 13.047756 9.376972 14.661834 -6.834605 0.758163 -82.771233 -37.881465 26.879138 1.981119 -49.229366 4.962788 -15.874878 6.742535 -1.680657 -0.000000 -0.000000 0.000000 -0.000000 -0.000000 -0.000000 0.000000 0.000000 0.000000 -6.582703 2.754351 1.551465 78.489197 8.181034 8.670706 10.081024 30.554319 -14.573798 2.128711 -11.416527 -1.797456 0.000000 -0.000001 0.000001 -0.000000 -0.000000 0.000000 0.000000 -0.000000 0.000000 
31.218168 16.608559 9.631787 -178.000643 -29.075807 -177.083578 4.363265 -6.384027 -10.365956 -17.579763 -23.194457 -4.622263 -15.522262 -2.938886 32.192624 1.776058 -7.646170 1.335316 7.642811 -7.620075 -2.953384 5.973705 18.854793 -15.016878 7.881274 -4.190712 6.920623 -1.995975 -6.313390 15.239909 4.575142 8.606793 -14.082680 -1.888650 1.391886 -3.435055 -10.624925 -2.484863 29.520149 4.841060 0.003275 -10.326922 3.656450 -0.286566 -4.959608 -0.320232 1.940788 -8.348794 7.141116 1.190595 14.849693 -14.413937 12.889614 9.507081 14.556750 -6.803912 0.766313 -83.017934 -38.304001 26.807349 2.357442 -49.640948 4.956611 -15.419252 6.363584 -1.551914 -0.000000 -0.000000 0.000000 0.000000 0.000000 0.000000 -0.000000 -0.000000 0.000000 -6.856897 2.796668 1.421478 78.329896 8.300475 8.866266 9.744000 30.631178 -16.404430 1.021675 -12.398634 -1.849971 0.000000 -0.000001 0.000001 0.000000 0.000000 0.000000 -0.000000 0.000000 -0.000000 
31.295195 16.613363 9.587237 -178.028719 -30.203284 -176.875170 4.169670 -6.499891 -10.572613 -17.046744 -22.813259 -5.185877 -15.563345 -2.507899 32.486744 1.656035 -8.083037 1.420833 6.861739 -7.105768 -2.470244 5.961752 18.747512 -15.104170 7.890966 -3.858047 6.735948 -1.451205 -6.578086 15.691864 3.143716 7.179094 -14.312740 -2.342446 1.069440 -4.791907 -10.301199 -2.473348 29.773349 4.732068 0.082162 -10.366101 3.533949 -0.188530 -5.005038 -0.355459 1.933803 -8.426524 7.125785 1.191714 14.627017 -14.883355 12.962192 9.529022 14.580028 -6.712051 0.732788 -83.235273 -38.660779 26.425822 2.413032 -50.073904 5.083888 -14.914819 5.946532 -1.413990 -0.000000 -0.000000 0.000000 -0.000000 -0.000000 -0.000000 0.000000 0.000000 -0.000000 -6.991583 2.888244 1.467842 78.095041 8.597063 8.299056 9.909863 30.598641 -17.001667 1.097845 -12.719986 -1.906332 0.000000 -0.000001 0.000001 0.000000 0.000000 0.000000 0.000000 0.000000 0.000000 
